<mxfile host="app.diagrams.net" agent="Mozilla/5.0 (X11; Linux x86_64; rv:109.0) Gecko/20100101 Firefox/115.0" version="24.7.17">
  <diagram id="C5RBs43oDa-KdzZeNtuy" name="Page-1">
    <mxGraphModel dx="1689" dy="1086" grid="1" gridSize="10" guides="1" tooltips="1" connect="1" arrows="1" fold="1" page="1" pageScale="1" pageWidth="827" pageHeight="1169" math="0" shadow="0">
      <root>
        <mxCell id="WIyWlLk6GJQsqaUBKTNV-0" />
        <mxCell id="WIyWlLk6GJQsqaUBKTNV-1" parent="WIyWlLk6GJQsqaUBKTNV-0" />
        <mxCell id="7gw9G7IzElXfcgOSqkMM-13" style="edgeStyle=orthogonalEdgeStyle;rounded=0;orthogonalLoop=1;jettySize=auto;html=1;entryX=1;entryY=0.5;entryDx=0;entryDy=0;" edge="1" parent="WIyWlLk6GJQsqaUBKTNV-1" source="7gw9G7IzElXfcgOSqkMM-6" target="7gw9G7IzElXfcgOSqkMM-10">
          <mxGeometry relative="1" as="geometry">
            <Array as="points">
              <mxPoint x="500" y="615" />
            </Array>
          </mxGeometry>
        </mxCell>
        <mxCell id="WIyWlLk6GJQsqaUBKTNV-2" value="" style="rounded=0;html=1;jettySize=auto;orthogonalLoop=1;fontSize=11;endArrow=block;endFill=0;endSize=8;strokeWidth=1;shadow=0;labelBackgroundColor=none;edgeStyle=orthogonalEdgeStyle;" parent="WIyWlLk6GJQsqaUBKTNV-1" source="WIyWlLk6GJQsqaUBKTNV-3" edge="1">
          <mxGeometry relative="1" as="geometry">
            <mxPoint x="300" y="110" as="targetPoint" />
          </mxGeometry>
        </mxCell>
        <mxCell id="WIyWlLk6GJQsqaUBKTNV-3" value="User selects binary type" style="rounded=1;whiteSpace=wrap;html=1;fontSize=12;glass=0;strokeWidth=1;shadow=0;" parent="WIyWlLk6GJQsqaUBKTNV-1" vertex="1">
          <mxGeometry x="240" y="20" width="120" height="40" as="geometry" />
        </mxCell>
        <mxCell id="7gw9G7IzElXfcgOSqkMM-0" value="&amp;nbsp;" style="text;whiteSpace=wrap;html=1;" vertex="1" parent="WIyWlLk6GJQsqaUBKTNV-1">
          <mxGeometry x="480" y="150" width="40" height="40" as="geometry" />
        </mxCell>
        <mxCell id="7gw9G7IzElXfcgOSqkMM-1" value="Custom" style="rounded=1;whiteSpace=wrap;html=1;fontSize=12;glass=0;strokeWidth=1;shadow=0;" vertex="1" parent="WIyWlLk6GJQsqaUBKTNV-1">
          <mxGeometry x="30" y="220" width="120" height="40" as="geometry" />
        </mxCell>
        <mxCell id="7gw9G7IzElXfcgOSqkMM-2" value="Agent" style="rounded=1;whiteSpace=wrap;html=1;fontSize=12;glass=0;strokeWidth=1;shadow=0;" vertex="1" parent="WIyWlLk6GJQsqaUBKTNV-1">
          <mxGeometry x="240" y="220" width="120" height="40" as="geometry" />
        </mxCell>
        <mxCell id="7gw9G7IzElXfcgOSqkMM-3" value="Dropper" style="rounded=1;whiteSpace=wrap;html=1;fontSize=12;glass=0;strokeWidth=1;shadow=0;" vertex="1" parent="WIyWlLk6GJQsqaUBKTNV-1">
          <mxGeometry x="450" y="220" width="120" height="40" as="geometry" />
        </mxCell>
        <mxCell id="7gw9G7IzElXfcgOSqkMM-11" style="edgeStyle=orthogonalEdgeStyle;rounded=0;orthogonalLoop=1;jettySize=auto;html=1;entryX=0;entryY=0.5;entryDx=0;entryDy=0;" edge="1" parent="WIyWlLk6GJQsqaUBKTNV-1" source="7gw9G7IzElXfcgOSqkMM-4" target="7gw9G7IzElXfcgOSqkMM-10">
          <mxGeometry relative="1" as="geometry">
            <Array as="points">
              <mxPoint x="95" y="615" />
            </Array>
          </mxGeometry>
        </mxCell>
        <mxCell id="7gw9G7IzElXfcgOSqkMM-4" value="/binary_builder/build/custom" style="verticalLabelPosition=bottom;html=1;verticalAlign=top;align=center;strokeColor=none;fillColor=#00BEF2;shape=mxgraph.azure.service_endpoint;" vertex="1" parent="WIyWlLk6GJQsqaUBKTNV-1">
          <mxGeometry x="70" y="430" width="50" height="20" as="geometry" />
        </mxCell>
        <mxCell id="7gw9G7IzElXfcgOSqkMM-12" style="edgeStyle=orthogonalEdgeStyle;rounded=0;orthogonalLoop=1;jettySize=auto;html=1;entryX=0.5;entryY=0;entryDx=0;entryDy=0;" edge="1" parent="WIyWlLk6GJQsqaUBKTNV-1" source="7gw9G7IzElXfcgOSqkMM-5" target="7gw9G7IzElXfcgOSqkMM-10">
          <mxGeometry relative="1" as="geometry" />
        </mxCell>
        <mxCell id="7gw9G7IzElXfcgOSqkMM-5" value="&lt;div&gt;/binary_builder/build/agent&lt;/div&gt;&lt;div&gt;&lt;br&gt;&lt;/div&gt;" style="verticalLabelPosition=bottom;html=1;verticalAlign=top;align=center;strokeColor=none;fillColor=#00BEF2;shape=mxgraph.azure.service_endpoint;" vertex="1" parent="WIyWlLk6GJQsqaUBKTNV-1">
          <mxGeometry x="275" y="430" width="50" height="20" as="geometry" />
        </mxCell>
        <mxCell id="7gw9G7IzElXfcgOSqkMM-7" style="rounded=0;orthogonalLoop=1;jettySize=auto;html=1;entryX=0.5;entryY=0.35;entryDx=0;entryDy=0;entryPerimeter=0;" edge="1" parent="WIyWlLk6GJQsqaUBKTNV-1" source="7gw9G7IzElXfcgOSqkMM-1" target="7gw9G7IzElXfcgOSqkMM-4">
          <mxGeometry relative="1" as="geometry" />
        </mxCell>
        <mxCell id="7gw9G7IzElXfcgOSqkMM-8" style="edgeStyle=orthogonalEdgeStyle;rounded=0;orthogonalLoop=1;jettySize=auto;html=1;entryX=0.5;entryY=0.35;entryDx=0;entryDy=0;entryPerimeter=0;" edge="1" parent="WIyWlLk6GJQsqaUBKTNV-1" source="7gw9G7IzElXfcgOSqkMM-2" target="7gw9G7IzElXfcgOSqkMM-5">
          <mxGeometry relative="1" as="geometry" />
        </mxCell>
        <mxCell id="7gw9G7IzElXfcgOSqkMM-9" style="rounded=0;orthogonalLoop=1;jettySize=auto;html=1;entryX=0.5;entryY=0.35;entryDx=0;entryDy=0;entryPerimeter=0;" edge="1" parent="WIyWlLk6GJQsqaUBKTNV-1" source="7gw9G7IzElXfcgOSqkMM-3" target="7gw9G7IzElXfcgOSqkMM-6">
          <mxGeometry relative="1" as="geometry" />
        </mxCell>
        <mxCell id="7gw9G7IzElXfcgOSqkMM-32" style="edgeStyle=orthogonalEdgeStyle;rounded=0;orthogonalLoop=1;jettySize=auto;html=1;" edge="1" parent="WIyWlLk6GJQsqaUBKTNV-1" source="7gw9G7IzElXfcgOSqkMM-10" target="7gw9G7IzElXfcgOSqkMM-17">
          <mxGeometry relative="1" as="geometry" />
        </mxCell>
        <mxCell id="7gw9G7IzElXfcgOSqkMM-10" value="Server" style="image;aspect=fixed;perimeter=ellipsePerimeter;html=1;align=center;shadow=0;dashed=0;spacingTop=3;image=img/lib/active_directory/generic_server.svg;" vertex="1" parent="WIyWlLk6GJQsqaUBKTNV-1">
          <mxGeometry x="286" y="590" width="28.000000000000004" height="50" as="geometry" />
        </mxCell>
        <mxCell id="7gw9G7IzElXfcgOSqkMM-15" value="&lt;div&gt;config.yaml&lt;/div&gt;&lt;div&gt;&lt;br&gt;&lt;/div&gt;" style="sketch=0;points=[[0,0,0],[0.25,0,0],[0.5,0,0],[0.75,0,0],[1,0,0],[0,1,0],[0.25,1,0],[0.5,1,0],[0.75,1,0],[1,1,0],[0,0.25,0],[0,0.5,0],[0,0.75,0],[1,0.25,0],[1,0.5,0],[1,0.75,0]];points=[[0,0,0],[0.25,0,0],[0.5,0,0],[0.75,0,0],[1,0,0],[0,1,0],[0.25,1,0],[0.5,1,0],[0.75,1,0],[1,1,0],[0,0.25,0],[0,0.5,0],[0,0.75,0],[1,0.25,0],[1,0.5,0],[1,0.75,0]];outlineConnect=0;fontColor=#232F3E;fillColor=#E7157B;strokeColor=#ffffff;dashed=0;verticalLabelPosition=bottom;verticalAlign=top;align=center;html=1;fontSize=12;fontStyle=0;aspect=fixed;shape=mxgraph.aws4.resourceIcon;resIcon=mxgraph.aws4.app_config;" vertex="1" parent="WIyWlLk6GJQsqaUBKTNV-1">
          <mxGeometry x="-60" y="682" width="78" height="78" as="geometry" />
        </mxCell>
        <mxCell id="7gw9G7IzElXfcgOSqkMM-19" style="edgeStyle=orthogonalEdgeStyle;rounded=0;orthogonalLoop=1;jettySize=auto;html=1;startArrow=classic;startFill=1;" edge="1" parent="WIyWlLk6GJQsqaUBKTNV-1" source="7gw9G7IzElXfcgOSqkMM-17" target="7gw9G7IzElXfcgOSqkMM-15">
          <mxGeometry relative="1" as="geometry">
            <Array as="points">
              <mxPoint x="80" y="721" />
              <mxPoint x="80" y="721" />
            </Array>
          </mxGeometry>
        </mxCell>
        <mxCell id="7gw9G7IzElXfcgOSqkMM-29" value="Get Info" style="edgeLabel;html=1;align=center;verticalAlign=middle;resizable=0;points=[];" vertex="1" connectable="0" parent="7gw9G7IzElXfcgOSqkMM-19">
          <mxGeometry x="0.0924" y="-1" relative="1" as="geometry">
            <mxPoint as="offset" />
          </mxGeometry>
        </mxCell>
        <mxCell id="7gw9G7IzElXfcgOSqkMM-27" style="edgeStyle=orthogonalEdgeStyle;rounded=0;orthogonalLoop=1;jettySize=auto;html=1;entryX=0.5;entryY=0;entryDx=0;entryDy=0;" edge="1" parent="WIyWlLk6GJQsqaUBKTNV-1" source="7gw9G7IzElXfcgOSqkMM-17" target="7gw9G7IzElXfcgOSqkMM-18">
          <mxGeometry relative="1" as="geometry" />
        </mxCell>
        <mxCell id="7gw9G7IzElXfcgOSqkMM-35" style="rounded=0;orthogonalLoop=1;jettySize=auto;html=1;entryX=0;entryY=0.5;entryDx=0;entryDy=0;dashed=1;dashPattern=8 8;endArrow=none;endFill=0;" edge="1" parent="WIyWlLk6GJQsqaUBKTNV-1" source="7gw9G7IzElXfcgOSqkMM-17" target="7gw9G7IzElXfcgOSqkMM-34">
          <mxGeometry relative="1" as="geometry" />
        </mxCell>
        <mxCell id="7gw9G7IzElXfcgOSqkMM-17" value="Python Class" style="shape=image;html=1;verticalAlign=top;verticalLabelPosition=bottom;labelBackgroundColor=#ffffff;imageAspect=0;aspect=fixed;image=https://cdn0.iconfinder.com/data/icons/long-shadow-web-icons/512/python-128.png" vertex="1" parent="WIyWlLk6GJQsqaUBKTNV-1">
          <mxGeometry x="267" y="692" width="58" height="58" as="geometry" />
        </mxCell>
        <mxCell id="7gw9G7IzElXfcgOSqkMM-6" value="/binary_builder/build/dropper" style="verticalLabelPosition=bottom;html=1;verticalAlign=top;align=center;strokeColor=none;fillColor=#00BEF2;shape=mxgraph.azure.service_endpoint;" vertex="1" parent="WIyWlLk6GJQsqaUBKTNV-1">
          <mxGeometry x="475" y="430" width="50" height="20" as="geometry" />
        </mxCell>
        <mxCell id="7gw9G7IzElXfcgOSqkMM-22" style="rounded=0;orthogonalLoop=1;jettySize=auto;html=1;entryX=0.48;entryY=0.098;entryDx=0;entryDy=0;entryPerimeter=0;" edge="1" parent="WIyWlLk6GJQsqaUBKTNV-1" source="7gw9G7IzElXfcgOSqkMM-14" target="7gw9G7IzElXfcgOSqkMM-21">
          <mxGeometry relative="1" as="geometry" />
        </mxCell>
        <mxCell id="7gw9G7IzElXfcgOSqkMM-14" value="Build Image" style="image;sketch=0;aspect=fixed;html=1;points=[];align=center;fontSize=12;image=img/lib/mscae/Docker.svg;" vertex="1" parent="WIyWlLk6GJQsqaUBKTNV-1">
          <mxGeometry x="271" y="970" width="50" height="41" as="geometry" />
        </mxCell>
        <mxCell id="7gw9G7IzElXfcgOSqkMM-23" value="Compile Binary" style="rounded=1;whiteSpace=wrap;html=1;fontSize=12;glass=0;strokeWidth=1;shadow=0;" vertex="1" parent="WIyWlLk6GJQsqaUBKTNV-1">
          <mxGeometry x="236" y="1050" width="120" height="40" as="geometry" />
        </mxCell>
        <mxCell id="7gw9G7IzElXfcgOSqkMM-24" value="Copy binary into project_root/data/compiled" style="rounded=1;whiteSpace=wrap;html=1;fontSize=12;glass=0;strokeWidth=1;shadow=0;" vertex="1" parent="WIyWlLk6GJQsqaUBKTNV-1">
          <mxGeometry x="191" y="1240" width="210" height="40" as="geometry" />
        </mxCell>
        <mxCell id="7gw9G7IzElXfcgOSqkMM-26" style="edgeStyle=orthogonalEdgeStyle;rounded=0;orthogonalLoop=1;jettySize=auto;html=1;entryX=0.5;entryY=0;entryDx=0;entryDy=0;" edge="1" parent="WIyWlLk6GJQsqaUBKTNV-1" source="7gw9G7IzElXfcgOSqkMM-21" target="7gw9G7IzElXfcgOSqkMM-24">
          <mxGeometry relative="1" as="geometry" />
        </mxCell>
        <mxCell id="7gw9G7IzElXfcgOSqkMM-21" value="Create Container" style="image;sketch=0;aspect=fixed;html=1;points=[];align=center;fontSize=12;image=img/lib/mscae/Docker.svg;" vertex="1" parent="WIyWlLk6GJQsqaUBKTNV-1">
          <mxGeometry x="271" y="1130" width="50" height="41" as="geometry" />
        </mxCell>
        <mxCell id="7gw9G7IzElXfcgOSqkMM-28" style="edgeStyle=orthogonalEdgeStyle;rounded=0;orthogonalLoop=1;jettySize=auto;html=1;entryX=0.5;entryY=0;entryDx=0;entryDy=0;entryPerimeter=0;" edge="1" parent="WIyWlLk6GJQsqaUBKTNV-1" source="7gw9G7IzElXfcgOSqkMM-18" target="7gw9G7IzElXfcgOSqkMM-14">
          <mxGeometry relative="1" as="geometry" />
        </mxCell>
        <mxCell id="7gw9G7IzElXfcgOSqkMM-30" value="&lt;div&gt;- Buildfile Path&lt;/div&gt;&lt;div&gt;- Description&lt;/div&gt;&lt;div&gt;Language&lt;br&gt;&lt;/div&gt;" style="rounded=1;whiteSpace=wrap;html=1;fontSize=12;glass=0;strokeWidth=1;shadow=0;" vertex="1" parent="WIyWlLk6GJQsqaUBKTNV-1">
          <mxGeometry x="50" y="740" width="175" height="60" as="geometry" />
        </mxCell>
        <mxCell id="7gw9G7IzElXfcgOSqkMM-31" value="&amp;nbsp;" style="text;whiteSpace=wrap;html=1;" vertex="1" parent="WIyWlLk6GJQsqaUBKTNV-1">
          <mxGeometry x="550" y="980" width="40" height="40" as="geometry" />
        </mxCell>
        <mxCell id="7gw9G7IzElXfcgOSqkMM-34" value="One of three classes, either Agent(), Custom() or Dropper()" style="rounded=1;whiteSpace=wrap;html=1;fontSize=12;glass=0;strokeWidth=1;shadow=0;" vertex="1" parent="WIyWlLk6GJQsqaUBKTNV-1">
          <mxGeometry x="510" y="690" width="175" height="60" as="geometry" />
        </mxCell>
        <mxCell id="7gw9G7IzElXfcgOSqkMM-18" value="&lt;div&gt;DockerBuilder Class&lt;/div&gt;" style="shape=image;html=1;verticalAlign=top;verticalLabelPosition=bottom;labelBackgroundColor=#ffffff;imageAspect=0;aspect=fixed;image=https://cdn0.iconfinder.com/data/icons/long-shadow-web-icons/512/python-128.png" vertex="1" parent="WIyWlLk6GJQsqaUBKTNV-1">
          <mxGeometry x="267" y="830" width="58" height="58" as="geometry" />
        </mxCell>
        <mxCell id="7gw9G7IzElXfcgOSqkMM-36" value="Uses Buildfile Path to build image. First build is always slower, subsequent use docker build cache" style="rounded=1;whiteSpace=wrap;html=1;fontSize=12;glass=0;strokeWidth=1;shadow=0;" vertex="1" parent="WIyWlLk6GJQsqaUBKTNV-1">
          <mxGeometry x="510" y="960" width="175" height="60" as="geometry" />
        </mxCell>
        <mxCell id="7gw9G7IzElXfcgOSqkMM-37" style="rounded=0;orthogonalLoop=1;jettySize=auto;html=1;entryX=1;entryY=0.39;entryDx=0;entryDy=0;entryPerimeter=0;dashed=1;dashPattern=8 8;endArrow=none;endFill=0;" edge="1" parent="WIyWlLk6GJQsqaUBKTNV-1" source="7gw9G7IzElXfcgOSqkMM-36" target="7gw9G7IzElXfcgOSqkMM-14">
          <mxGeometry relative="1" as="geometry" />
        </mxCell>
        <mxCell id="7gw9G7IzElXfcgOSqkMM-39" style="edgeStyle=orthogonalEdgeStyle;rounded=0;orthogonalLoop=1;jettySize=auto;html=1;entryX=1;entryY=0.5;entryDx=0;entryDy=0;dashed=1;dashPattern=8 8;endArrow=none;endFill=0;" edge="1" parent="WIyWlLk6GJQsqaUBKTNV-1" source="7gw9G7IzElXfcgOSqkMM-38" target="7gw9G7IzElXfcgOSqkMM-24">
          <mxGeometry relative="1" as="geometry" />
        </mxCell>
        <mxCell id="7gw9G7IzElXfcgOSqkMM-38" value="These binaries are then served via the stats plugin" style="rounded=1;whiteSpace=wrap;html=1;fontSize=12;glass=0;strokeWidth=1;shadow=0;" vertex="1" parent="WIyWlLk6GJQsqaUBKTNV-1">
          <mxGeometry x="510" y="1230" width="175" height="60" as="geometry" />
        </mxCell>
      </root>
    </mxGraphModel>
  </diagram>
</mxfile>
